<?xml version="1.0" standalone="no"?>
<!DOCTYPE svg PUBLIC "-//W3C//DTD SVG 20010904//EN"
 "http://www.w3.org/TR/2001/REC-SVG-20010904/DTD/svg10.dtd">
<svg version="1.0" xmlns="http://www.w3.org/2000/svg"
 width="910.000000pt" height="188.000000pt" viewBox="0 0 910.000000 188.000000"
 preserveAspectRatio="xMidYMid meet">

<g transform="translate(0.000000,188.000000) scale(0.100000,-0.100000)"
fill="#000000" stroke="none">
<path d="M720 1482 l-325 -188 -3 -385 -2 -384 311 -180 c171 -99 319 -184
329 -188 13 -7 96 36 341 179 178 103 326 190 329 195 3 4 5 177 5 385 l0 377
-325 188 c-179 104 -327 189 -330 189 -3 0 -151 -85 -330 -188z m581 -191 c25
-25 29 -37 29 -81 0 -44 -3 -51 -17 -48 -13 2 -19 15 -21 48 -2 24 -8 50 -14
57 -15 18 -608 19 -626 1 -17 -17 -17 -424 1 -435 6 -4 30 -10 52 -13 39 -5
40 -6 45 -49 l5 -43 43 46 c45 48 56 54 68 35 3 -6 -23 -41 -62 -80 -78 -78
-94 -78 -94 2 0 45 -2 49 -24 49 -14 0 -38 12 -55 26 l-31 26 0 217 c0 218 0
218 25 245 l24 26 311 0 312 0 29 -29z m133 -172 c49 -23 58 -62 54 -260 l-3
-181 -28 -24 c-22 -18 -40 -24 -78 -24 l-49 0 0 -54 c0 -30 -5 -58 -11 -62
-13 -7 -139 114 -139 133 0 24 26 13 65 -28 l40 -40 5 38 5 38 64 6 c46 4 68
12 78 25 20 28 19 352 -3 382 -15 22 -19 22 -230 22 -129 0 -223 -4 -235 -10
-18 -10 -19 -23 -19 -199 0 -163 2 -190 16 -202 10 -8 50 -16 93 -19 42 -3 76
-9 76 -15 0 -6 -38 -11 -88 -13 -81 -3 -89 -1 -112 22 -25 25 -25 25 -25 225
l0 199 31 26 31 26 218 0 c143 0 228 -4 244 -11z m-64 -164 c0 -13 -25 -15
-169 -15 -154 0 -192 5 -174 24 3 3 82 6 175 6 143 0 168 -2 168 -15z m-5 -75
c0 -13 -26 -15 -164 -18 -158 -2 -192 3 -176 27 4 8 59 11 173 9 141 -3 167
-5 167 -18z m0 -80 c0 -13 -26 -15 -164 -18 -158 -2 -192 3 -176 27 4 8 59 11
173 9 141 -3 167 -5 167 -18z"/>
<path d="M2429 1144 c-59 -18 -133 -83 -167 -148 -25 -46 -27 -61 -27 -161 0
-103 2 -113 30 -164 53 -96 134 -142 249 -140 84 1 140 19 144 46 3 21 2 21
-45 6 -58 -18 -165 -13 -208 10 -88 45 -129 124 -130 248 0 76 3 92 30 144 37
72 88 110 167 127 56 12 120 5 171 -17 14 -6 17 -2 17 18 0 21 -7 26 -44 36
-59 15 -130 13 -187 -5z"/>
<path d="M4523 1139 c-172 -66 -243 -322 -137 -491 50 -78 129 -117 239 -117
87 0 139 16 143 45 3 21 2 21 -50 8 -144 -38 -262 12 -314 133 -22 53 -23 174
0 240 24 73 96 137 171 154 52 11 123 5 178 -16 13 -6 17 -2 17 18 0 22 -7 28
-37 36 -59 17 -152 12 -210 -10z"/>
<path d="M5056 1140 c-95 -37 -156 -120 -175 -237 -20 -126 24 -257 107 -320
105 -80 274 -69 366 23 123 125 116 388 -13 495 -72 59 -191 75 -285 39z m166
-31 c69 -15 137 -81 158 -155 34 -118 10 -243 -59 -315 -53 -55 -108 -74 -187
-66 -135 14 -209 113 -207 278 1 113 43 198 118 236 65 34 99 38 177 22z"/>
<path d="M7684 1141 c-109 -49 -125 -176 -32 -255 22 -20 72 -54 109 -76 38
-22 75 -50 84 -62 22 -32 20 -109 -5 -135 -42 -46 -149 -55 -220 -18 l-31 16
3 -28 c4 -35 46 -52 131 -52 108 -1 176 50 185 140 7 75 -15 109 -107 169
-150 97 -161 109 -161 176 0 26 8 43 28 64 36 35 85 45 152 31 69 -15 72 -14
68 11 -4 26 -31 36 -108 37 -34 0 -71 -7 -96 -18z"/>
<path d="M2800 845 c0 -298 0 -305 20 -305 19 0 20 7 20 145 l0 145 169 0 168
0 7 -46 c3 -26 6 -91 6 -145 0 -92 1 -99 20 -99 20 0 20 7 20 305 0 298 0 305
-20 305 -19 0 -20 -7 -20 -140 l0 -140 -175 0 -175 0 0 140 c0 133 -1 140 -20
140 -20 0 -20 -7 -20 -305z"/>
<path d="M3441 853 c-61 -164 -111 -302 -111 -306 0 -5 10 -7 22 -5 18 2 29
20 56 96 l34 93 131 -3 130 -3 35 -92 c31 -83 37 -93 59 -93 16 0 23 5 20 13
-2 6 -53 144 -113 305 -96 258 -111 292 -130 292 -19 0 -35 -35 -133 -297z
m217 0 l31 -83 -115 0 c-63 0 -114 2 -114 4 0 3 87 253 106 306 3 9 18 -19 34
-65 15 -44 41 -117 58 -162z"/>
<path d="M3880 1130 c0 -18 7 -20 85 -20 l85 0 0 -285 c0 -278 0 -285 20 -285
20 0 20 7 20 285 l0 285 90 0 c83 0 90 1 90 20 0 19 -7 20 -195 20 -188 0
-195 -1 -195 -20z"/>
<path d="M5570 845 c0 -298 0 -305 20 -305 19 0 20 7 20 262 l0 261 63 -84
c35 -46 121 -164 191 -261 88 -123 134 -178 147 -178 18 0 19 13 19 305 l0
305 -25 0 -25 0 -2 -255 -3 -255 -185 255 c-119 164 -191 255 -202 255 -17 0
-18 -21 -18 -305z"/>
<path d="M6125 1128 c4 -13 53 -150 109 -305 86 -242 104 -283 121 -283 17 0
36 43 128 283 130 339 127 330 97 325 -24 -3 -20 5 -165 -376 l-58 -154 -39
109 c-154 436 -149 423 -175 423 -21 0 -23 -3 -18 -22z"/>
<path d="M6700 845 l0 -305 150 0 c143 0 150 1 150 20 0 19 -7 20 -130 20
l-130 0 0 125 0 125 115 0 c108 0 115 1 115 20 0 19 -7 20 -115 20 l-115 0 0
120 0 120 120 0 c113 0 120 1 120 20 0 19 -7 20 -140 20 l-140 0 0 -305z"/>
<path d="M7130 845 c0 -298 0 -305 20 -305 19 0 20 7 20 136 l0 136 60 -4 c40
-3 66 -11 81 -24 12 -10 46 -70 75 -131 47 -100 56 -113 78 -113 23 0 25 2 16
26 -22 56 -122 244 -131 244 -22 0 -6 17 26 29 83 30 121 147 74 230 -35 63
-82 81 -212 81 l-107 0 0 -305z m236 242 c40 -20 58 -64 51 -123 -9 -80 -61
-114 -177 -114 l-70 0 0 131 0 132 83 -5 c48 -3 95 -11 113 -21z"/>
<path d="M8111 853 c-61 -164 -111 -301 -111 -305 0 -5 10 -8 23 -8 20 0 27
13 56 95 l33 95 128 0 129 0 29 -77 c16 -43 32 -86 35 -95 4 -11 17 -18 33
-18 17 0 24 4 22 13 -3 6 -54 144 -113 305 -97 263 -110 292 -130 292 -20 0
-34 -30 -134 -297z m191 68 c26 -73 48 -137 48 -142 0 -5 -50 -9 -111 -9 -91
0 -110 3 -106 14 3 8 24 67 47 132 60 168 61 172 68 154 3 -8 27 -75 54 -149z"/>
</g>
</svg>
