<?xml version="1.0" standalone="no"?>
<!DOCTYPE svg PUBLIC "-//W3C//DTD SVG 20010904//EN"
 "http://www.w3.org/TR/2001/REC-SVG-20010904/DTD/svg10.dtd">
<svg version="1.0" xmlns="http://www.w3.org/2000/svg"
 width="183.000000pt" height="188.000000pt" viewBox="0 0 183.000000 188.000000"
 preserveAspectRatio="xMidYMid meet">

<g transform="translate(0.000000,188.000000) scale(0.100000,-0.100000)"
fill="#000000" stroke="none">
<path d="M755 1561 c-132 -77 -284 -165 -337 -196 l-98 -56 0 -392 1 -392 261
-150 c144 -82 296 -169 338 -192 l77 -43 189 108 c104 59 255 147 337 196
l147 87 -2 392 -3 391 -75 44 c-84 50 -592 342 -594 342 0 0 -109 -63 -241
-139z m506 -240 c25 -26 29 -37 29 -85 0 -49 -2 -56 -20 -56 -16 0 -20 7 -20
34 0 19 -4 46 -10 60 l-10 26 -319 0 c-306 0 -321 -1 -331 -19 -6 -12 -10
-101 -10 -219 0 -225 1 -228 75 -234 38 -3 40 -4 43 -41 l3 -38 44 40 c48 45
62 49 72 25 7 -19 -113 -144 -139 -144 -15 0 -18 9 -18 54 l0 54 -36 7 c-20 3
-47 17 -60 30 -24 24 -24 26 -24 244 0 230 5 260 44 279 13 7 142 11 339 11
l319 1 29 -29z m160 -200 l29 -29 0 -207 0 -206 -25 -23 c-25 -23 -65 -36
-111 -36 -22 0 -24 -4 -24 -54 0 -30 -5 -58 -11 -62 -12 -7 -149 123 -149 143
0 30 26 22 70 -22 l49 -48 3 44 3 44 62 3 c92 4 93 8 93 220 0 100 -4 181 -10
193 -10 18 -24 19 -250 19 -226 0 -240 -1 -250 -19 -6 -12 -10 -93 -10 -193 0
-220 -1 -218 111 -218 64 0 81 -3 86 -16 9 -24 -15 -34 -85 -34 -71 0 -125 19
-141 48 -7 13 -11 97 -11 222 l0 202 29 29 29 29 242 0 242 0 29 -29z m-93
-153 c3 -17 -11 -18 -177 -18 -144 0 -181 3 -181 13 0 8 3 17 7 21 4 3 84 5
177 4 153 -3 171 -5 174 -20z m0 -80 c3 -17 -11 -18 -177 -18 -144 0 -181 3
-181 13 0 8 3 17 7 21 4 3 84 5 177 4 153 -3 171 -5 174 -20z m-3 -83 c0 -19
-8 -20 -169 -23 -99 -1 -174 2 -179 7 -5 5 -7 17 -4 26 6 13 29 15 179 13 165
-3 173 -4 173 -23z"/>
</g>
</svg>
