<?xml version="1.0" standalone="no"?>
<!DOCTYPE svg PUBLIC "-//W3C//DTD SVG 20010904//EN"
 "http://www.w3.org/TR/2001/REC-SVG-20010904/DTD/svg10.dtd">
<svg version="1.0" xmlns="http://www.w3.org/2000/svg"
 width="654.000000pt" height="381.000000pt" viewBox="0 0 654.000000 381.000000"
 preserveAspectRatio="xMidYMid meet">

<g transform="translate(0.000000,381.000000) scale(0.100000,-0.100000)"
fill="#000000" stroke="none">
<path d="M3170 3583 c-87 -53 -206 -122 -410 -240 -80 -45 -161 -92 -180 -104
-19 -11 -71 -41 -115 -67 -44 -26 -115 -67 -157 -92 l-78 -44 0 -585 0 -586
48 -25 c26 -15 107 -61 180 -103 541 -315 774 -447 788 -447 12 0 99 49 464
260 107 62 274 159 370 214 l175 101 3 590 2 590 -52 29 c-29 16 -89 50 -133
76 -180 106 -231 135 -249 143 -10 4 -30 15 -45 26 -14 10 -46 29 -71 43 -25
14 -106 60 -180 103 -74 43 -155 89 -180 103 -25 14 -57 33 -72 43 -14 11 -28
19 -30 18 -1 0 -37 -21 -78 -46z m428 -513 c52 -24 82 -80 82 -155 0 -58 -10
-78 -36 -73 -15 3 -20 15 -25 68 -4 36 -9 72 -13 81 -16 37 -47 39 -502 39
l-445 0 -24 -25 -25 -24 0 -310 0 -310 26 -20 c18 -14 41 -21 70 -21 70 0 74
-4 74 -78 l0 -66 68 67 c68 68 112 87 112 49 0 -26 -194 -216 -214 -209 -12 5
-16 25 -18 89 l-3 83 -50 7 c-41 6 -57 14 -87 47 l-38 40 0 316 c0 334 2 346
48 388 11 10 33 22 48 27 16 4 227 9 469 9 415 1 442 -1 483 -19z m249 -300
c64 -39 68 -56 71 -352 3 -250 2 -270 -17 -313 -25 -57 -78 -84 -163 -85 l-58
0 0 -79 c0 -132 -20 -130 -163 18 -50 51 -77 87 -75 98 7 35 36 23 102 -41 37
-37 68 -66 71 -66 2 0 5 28 7 63 l3 62 93 5 c87 5 95 7 118 33 l24 28 0 260
c0 272 -5 307 -45 323 -9 3 -166 6 -349 6 -320 0 -333 -1 -354 -20 -12 -11
-24 -31 -27 -43 -3 -12 -5 -139 -3 -281 l3 -258 28 -24 c26 -22 37 -24 135
-24 117 0 144 -8 126 -37 -9 -15 -28 -18 -118 -21 -137 -3 -186 15 -216 80
-18 39 -20 67 -20 306 0 245 1 265 20 303 41 79 40 79 430 79 325 0 347 -1
377 -20z m-112 -245 c0 -19 -8 -20 -259 -23 -264 -2 -282 0 -269 35 4 11 54
13 267 11 253 -3 261 -4 261 -23z m-11 -98 c11 -8 15 -19 10 -30 -6 -15 -29
-17 -264 -17 -270 0 -279 2 -258 43 8 15 30 17 251 17 182 0 248 -3 261 -13z
m0 -120 c11 -8 15 -19 10 -30 -6 -15 -29 -17 -264 -17 -235 0 -258 2 -264 17
-15 38 16 43 264 43 176 0 241 -3 254 -13z"/>
<path d="M596 760 c-61 -24 -100 -60 -134 -125 -24 -44 -27 -61 -27 -145 0
-78 4 -102 22 -135 48 -92 120 -134 223 -135 86 0 140 15 140 39 0 18 -3 18
-47 5 -120 -36 -223 1 -276 100 -32 59 -32 203 0 263 58 107 179 146 306 97
12 -4 17 -1 17 14 0 43 -136 56 -224 22z"/>
<path d="M2495 764 c-47 -17 -109 -75 -135 -125 -26 -50 -40 -144 -30 -206 15
-90 61 -157 134 -195 79 -41 247 -29 254 18 3 21 2 21 -59 6 -50 -13 -72 -13
-117 -4 -114 24 -167 100 -167 238 0 99 29 163 94 209 37 26 51 30 114 30 40
0 87 -4 105 -8 31 -8 33 -7 30 14 -2 15 -12 26 -28 30 -44 12 -154 8 -195 -7z"/>
<path d="M2988 770 c-116 -35 -187 -159 -176 -304 10 -120 76 -213 171 -241
187 -55 338 70 338 280 0 123 -43 204 -133 249 -54 27 -140 34 -200 16z m201
-63 c60 -40 86 -102 86 -207 -1 -143 -52 -218 -166 -242 -143 -29 -251 73
-252 236 0 108 48 196 127 232 49 23 157 13 205 -19z"/>
<path d="M5332 763 c-61 -30 -92 -97 -72 -157 15 -45 57 -86 142 -136 67 -40
98 -78 98 -119 0 -87 -120 -128 -221 -75 -28 14 -29 14 -29 -9 0 -47 117 -72
195 -43 66 26 95 65 95 130 0 68 -18 92 -125 161 -45 29 -90 63 -99 76 -23 34
-20 83 7 115 27 31 99 43 160 26 35 -10 37 -9 37 13 0 15 -7 25 -22 29 -43 11
-133 6 -166 -11z"/>
<path d="M940 501 c0 -260 1 -269 20 -274 19 -5 20 0 20 123 0 153 -14 142
178 133 l132 -6 0 -122 c0 -96 3 -124 14 -128 8 -3 17 -3 20 0 3 4 6 127 6
275 0 261 0 268 -20 268 -19 0 -20 -7 -20 -125 l0 -125 -155 0 -155 0 0 125
c0 118 -1 125 -20 125 -20 0 -20 -7 -20 -269z"/>
<path d="M1596 703 c-14 -37 -57 -151 -95 -253 -38 -102 -72 -193 -76 -203 -6
-15 -4 -18 15 -15 17 2 27 14 37 43 7 22 20 59 29 83 l16 43 116 -3 117 -3 30
-77 c33 -83 47 -104 64 -94 7 5 2 30 -14 74 -158 432 -172 467 -193 470 -16 3
-24 -9 -46 -65z m54 -5 c0 -7 20 -66 45 -131 25 -66 45 -123 45 -128 0 -5 -45
-9 -100 -9 -59 0 -100 4 -100 10 0 20 94 270 102 270 4 0 8 -6 8 -12z"/>
<path d="M1910 755 c0 -12 16 -15 80 -15 l80 0 0 -255 c0 -248 1 -255 20 -255
19 0 20 7 20 255 l0 255 75 0 c60 0 75 3 75 15 0 13 -26 15 -175 15 -149 0
-175 -2 -175 -15z"/>
<path d="M3432 498 c3 -265 4 -273 23 -273 19 0 20 8 25 227 l5 227 165 -227
c91 -125 173 -228 183 -230 16 -3 17 16 17 272 0 269 0 276 -20 276 -19 0 -20
-7 -22 -207 -1 -115 -2 -216 -1 -225 0 -10 -3 -18 -6 -18 -3 0 -39 47 -78 103
-176 250 -253 347 -273 347 -20 0 -20 -4 -18 -272z"/>
<path d="M3935 753 c3 -10 22 -61 40 -113 96 -270 146 -405 155 -414 19 -19
38 5 62 76 14 40 49 134 78 208 29 74 63 163 76 198 l24 62 -23 0 c-20 0 -29
-18 -82 -157 -32 -87 -73 -194 -91 -237 l-31 -79 -36 104 c-116 339 -128 369
-154 369 -20 0 -24 -4 -18 -17z"/>
<path d="M4450 495 l0 -275 135 0 c128 0 135 1 135 20 0 19 -7 20 -115 20
l-115 0 0 110 0 110 100 0 c93 0 100 1 100 20 0 19 -7 20 -100 20 l-100 0 0
105 0 104 107 3 c93 3 108 5 111 21 3 15 -8 17 -127 17 l-131 0 0 -275z"/>
<path d="M4840 495 c0 -268 0 -275 20 -275 19 0 20 7 20 120 l0 120 53 0 c68
0 80 -13 140 -142 36 -78 50 -98 66 -98 12 0 21 4 21 9 0 15 -89 198 -110 224
l-20 25 31 12 c43 18 81 72 86 123 5 53 -19 103 -66 134 -30 20 -47 23 -137
23 l-104 0 0 -275z m231 206 c24 -24 29 -38 29 -76 0 -40 -5 -52 -33 -80 -36
-36 -100 -53 -156 -40 l-31 7 0 109 0 109 81 0 c76 0 82 -2 110 -29z"/>
<path d="M5807 733 c-70 -178 -188 -505 -184 -510 4 -3 17 1 29 9 15 10 31 40
46 87 l23 71 117 0 118 0 31 -83 c24 -63 36 -83 52 -85 29 -5 27 10 -19 130
-21 56 -62 166 -90 243 -28 76 -56 147 -61 157 -17 31 -45 22 -62 -19z m82
-156 c25 -67 46 -128 49 -134 3 -10 -21 -13 -98 -13 -77 0 -100 3 -97 13 3 6
24 67 47 135 23 67 45 122 48 122 4 0 27 -55 51 -123z"/>
</g>
</svg>
